<svg
   width="64.278831mm"
   height="4.9960222mm"
   viewBox="0 0 242.94362 18.882604"
   version="1.1"
   id="svg1"
   xml:space="preserve"
   xmlns:xlink="http://www.w3.org/1999/xlink"
   xmlns="http://www.w3.org/2000/svg"
   xmlns:svg="http://www.w3.org/2000/svg"><defs
     id="defs1"><linearGradient
       id="linearGradient117"><stop
         style="stop-color:#a4ace6;stop-opacity:1;"
         offset="0"
         id="stop117" /><stop
         style="stop-color:#b78aa9;stop-opacity:1;"
         offset="0.69938648"
         id="stop118" /><stop
         style="stop-color:#d87f5e;stop-opacity:1;"
         offset="1"
         id="stop126" /></linearGradient><linearGradient
       xlink:href="#linearGradient117"
       id="linearGradient118"
       x1="86.336922"
       y1="123.95707"
       x2="329.28049"
       y2="123.95707"
       gradientUnits="userSpaceOnUse" /><linearGradient
       xlink:href="#linearGradient117"
       id="linearGradient126"
       gradientUnits="userSpaceOnUse"
       x1="86.336922"
       y1="123.95707"
       x2="329.28049"
       y2="123.95707" /><linearGradient
       xlink:href="#linearGradient117"
       id="linearGradient127"
       gradientUnits="userSpaceOnUse"
       x1="86.336922"
       y1="123.95707"
       x2="329.28049"
       y2="123.95707" /><linearGradient
       xlink:href="#linearGradient117"
       id="linearGradient128"
       gradientUnits="userSpaceOnUse"
       x1="86.336922"
       y1="123.95707"
       x2="329.28049"
       y2="123.95707" /><linearGradient
       xlink:href="#linearGradient117"
       id="linearGradient129"
       gradientUnits="userSpaceOnUse"
       x1="86.336922"
       y1="123.95707"
       x2="329.28049"
       y2="123.95707" /><linearGradient
       xlink:href="#linearGradient117"
       id="linearGradient130"
       gradientUnits="userSpaceOnUse"
       x1="86.336922"
       y1="123.95707"
       x2="329.28049"
       y2="123.95707" /><linearGradient
       xlink:href="#linearGradient117"
       id="linearGradient131"
       gradientUnits="userSpaceOnUse"
       x1="86.336922"
       y1="123.95707"
       x2="329.28049"
       y2="123.95707" /><linearGradient
       xlink:href="#linearGradient117"
       id="linearGradient132"
       gradientUnits="userSpaceOnUse"
       x1="86.336922"
       y1="123.95707"
       x2="329.28049"
       y2="123.95707" /><linearGradient
       xlink:href="#linearGradient117"
       id="linearGradient133"
       gradientUnits="userSpaceOnUse"
       x1="86.336922"
       y1="123.95707"
       x2="329.28049"
       y2="123.95707" /><linearGradient
       xlink:href="#linearGradient117"
       id="linearGradient134"
       gradientUnits="userSpaceOnUse"
       x1="86.336922"
       y1="123.95707"
       x2="329.28049"
       y2="123.95707" /><linearGradient
       xlink:href="#linearGradient117"
       id="linearGradient135"
       gradientUnits="userSpaceOnUse"
       x1="86.336922"
       y1="123.95707"
       x2="329.28049"
... (86 lines left)
Collapse
g116.svg
21 KB
i think if you download that it wont be xml it will be an image
if it isnt great lmk i can fix it
﻿
vib3ch3ck
vib3ch3ck_
they/them
 
 
 
 
https://vib3ch3ck.carrd.co/
Meow
<?xml version="1.0" encoding="UTF-8" standalone="no"?>
<!-- Created with Inkscape (http://www.inkscape.org/) -->

<svg
   width="64.278831mm"
   height="4.9960222mm"
   viewBox="0 0 242.94362 18.882604"
   version="1.1"
   id="svg1"
   xml:space="preserve"
   xmlns:xlink="http://www.w3.org/1999/xlink"
   xmlns="http://www.w3.org/2000/svg"
   xmlns:svg="http://www.w3.org/2000/svg"><defs
     id="defs1"><linearGradient
       id="linearGradient117"><stop
         style="stop-color:#a4ace6;stop-opacity:1;"
         offset="0"
         id="stop117" /><stop
         style="stop-color:#b78aa9;stop-opacity:1;"
         offset="0.69938648"
         id="stop118" /><stop
         style="stop-color:#d87f5e;stop-opacity:1;"
         offset="1"
         id="stop126" /></linearGradient><linearGradient
       xlink:href="#linearGradient117"
       id="linearGradient118"
       x1="86.336922"
       y1="123.95707"
       x2="329.28049"
       y2="123.95707"
       gradientUnits="userSpaceOnUse" /><linearGradient
       xlink:href="#linearGradient117"
       id="linearGradient126"
       gradientUnits="userSpaceOnUse"
       x1="86.336922"
       y1="123.95707"
       x2="329.28049"
       y2="123.95707" /><linearGradient
       xlink:href="#linearGradient117"
       id="linearGradient127"
       gradientUnits="userSpaceOnUse"
       x1="86.336922"
       y1="123.95707"
       x2="329.28049"
       y2="123.95707" /><linearGradient
       xlink:href="#linearGradient117"
       id="linearGradient128"
       gradientUnits="userSpaceOnUse"
       x1="86.336922"
       y1="123.95707"
       x2="329.28049"
       y2="123.95707" /><linearGradient
       xlink:href="#linearGradient117"
       id="linearGradient129"
       gradientUnits="userSpaceOnUse"
       x1="86.336922"
       y1="123.95707"
       x2="329.28049"
       y2="123.95707" /><linearGradient
       xlink:href="#linearGradient117"
       id="linearGradient130"
       gradientUnits="userSpaceOnUse"
       x1="86.336922"
       y1="123.95707"
       x2="329.28049"
       y2="123.95707" /><linearGradient
       xlink:href="#linearGradient117"
       id="linearGradient131"
       gradientUnits="userSpaceOnUse"
       x1="86.336922"
       y1="123.95707"
       x2="329.28049"
       y2="123.95707" /><linearGradient
       xlink:href="#linearGradient117"
       id="linearGradient132"
       gradientUnits="userSpaceOnUse"
       x1="86.336922"
       y1="123.95707"
       x2="329.28049"
       y2="123.95707" /><linearGradient
       xlink:href="#linearGradient117"
       id="linearGradient133"
       gradientUnits="userSpaceOnUse"
       x1="86.336922"
       y1="123.95707"
       x2="329.28049"
       y2="123.95707" /><linearGradient
       xlink:href="#linearGradient117"
       id="linearGradient134"
       gradientUnits="userSpaceOnUse"
       x1="86.336922"
       y1="123.95707"
       x2="329.28049"
       y2="123.95707" /><linearGradient
       xlink:href="#linearGradient117"
       id="linearGradient135"
       gradientUnits="userSpaceOnUse"
       x1="86.336922"
       y1="123.95707"
       x2="329.28049"
       y2="123.95707" /><linearGradient
       xlink:href="#linearGradient117"
       id="linearGradient136"
       gradientUnits="userSpaceOnUse"
       x1="86.336922"
       y1="123.95707"
       x2="329.28049"
       y2="123.95707" /><linearGradient
       xlink:href="#linearGradient117"
       id="linearGradient137"
       gradientUnits="userSpaceOnUse"
       x1="86.336922"
       y1="123.95707"
       x2="329.28049"
       y2="123.95707" /><linearGradient
       xlink:href="#linearGradient117"
       id="linearGradient138"
       gradientUnits="userSpaceOnUse"
       x1="86.336922"
       y1="123.95707"
       x2="329.28049"
       y2="123.95707" /><linearGradient
       xlink:href="#linearGradient117"
       id="linearGradient139"
       gradientUnits="userSpaceOnUse"
       x1="86.336922"
       y1="123.95707"
       x2="329.28049"
       y2="123.95707" /><linearGradient
       xlink:href="#linearGradient117"
       id="linearGradient140"
       gradientUnits="userSpaceOnUse"
       x1="86.336922"
       y1="123.95707"
       x2="329.28049"
       y2="123.95707" /></defs><g
     id="layer2"
     transform="translate(-77.763494,-50.010979)"><g
       id="g116"
       style="fill:url(#linearGradient118);fill-opacity:1"><g
         id="g126"
         style="fill:url(#linearGradient140)"
         transform="translate(-8.5734223,-64.504796)"><path
           style="font-size:33.3333px;line-height:0.6;font-family:'Space Age';-inkscape-font-specification:'Space Age';text-align:center;text-anchor:middle;fill:url(#linearGradient126);fill-opacity:1;stroke-width:18.1438;stroke-linecap:square"
           d="m 302.25525,124.53171 h 7.09792 c 1.0652,0 2.10992,-0.14444 3.13415,-0.43333 1.02423,-0.31111 2.01773,-0.71111 2.98052,-1.2 0.98326,-0.48889 1.91531,-1.04445 2.79615,-1.66667 0.90131,-0.62222 1.76167,-1.25555 2.58105,-1.9 0.34824,-0.31111 0.69648,-0.46666 1.04473,-0.46666 0.40968,0 0.75793,0.15555 1.04471,0.46666 0.28678,0.31111 0.43018,0.68889 0.43018,1.13334 0,0.31111 -0.082,0.58888 -0.24582,0.83333 -0.16388,0.22222 -0.35848,0.42222 -0.58381,0.6 -0.5326,0.44444 -1.04472,0.86666 -1.53635,1.26666 -0.49163,0.37778 -0.98327,0.73334 -1.47489,1.06667 -0.49163,0.33333 -1.00375,0.65555 -1.53635,0.96666 -0.51211,0.31111 -1.06519,0.62223 -1.65925,0.93334 0.59406,0.31111 1.14714,0.62222 1.65925,0.93333 0.5326,0.31111 1.04472,0.63333 1.53635,0.96666 0.49162,0.33333 0.98326,0.7 1.47489,1.1 0.49163,0.37778 1.00375,0.78889 1.53635,1.23334 0.22533,0.17777 0.41993,0.38888 0.58381,0.63333 0.16388,0.22222 0.24582,0.48889 0.24582,0.8 0,0.44444 -0.1434,0.82222 -0.43018,1.13333 -0.28678,0.31111 -0.63503,0.46667 -1.04471,0.46667 -0.34825,0 -0.69649,-0.15556 -1.04473,-0.46667 -0.83987,-0.66667 -1.71046,-1.31111 -2.61179,-1.93333 -0.88083,-0.62222 -1.80264,-1.17778 -2.76541,-1.66667 -0.96279,-0.48889 -1.95629,-0.87777 -2.98052,-1.16666 -1.02423,-0.28889 -2.06895,-0.43334 -3.13415,-0.43334 h -7.09792 v 4.06667 c 0,0.44444 -0.1434,0.82222 -0.43018,1.13333 -0.28678,0.31111 -0.62478,0.46667 -1.01399,0.46667 -0.40969,0 -0.75793,-0.15556 -1.04471,-0.46667 -0.28679,-0.31111 -0.43018,-0.68889 -0.43018,-1.13333 v -11.33332 c 0,-0.44445 0.14339,-0.82223 0.43018,-1.13334 0.28678,-0.31111 0.62478,-0.46666 1.01399,-0.46666 0.40969,0 0.75793,0.15555 1.04471,0.46666 0.28678,0.31111 0.43018,0.68889 0.43018,1.13334 z"
           id="path23" /><path
           style="font-size:33.3333px;line-height:0.6;font-family:'Space Age';-inkscape-font-specification:'Space Age';text-align:center;text-anchor:middle;fill:url(#linearGradient127);fill-opacity:1;stroke-width:18.1438;stroke-linecap:square"
           d="m 271.22101,125.98391 c 0,-0.84445 0.1229,-1.68889 0.36872,-2.53333 0.2663,-0.86667 0.64528,-1.64445 1.13691,-2.33334 0.49162,-0.71111 1.08568,-1.28888 1.78216,-1.73333 0.69647,-0.44444 1.48513,-0.66666 2.36597,-0.66666 h 17.91381 c 0.40969,0 0.75793,0.15555 1.04471,0.46666 0.28679,0.31111 0.43017,0.68889 0.43017,1.13334 0,0.44444 -0.14338,0.82222 -0.43017,1.13333 -0.28678,0.31111 -0.63502,0.46666 -1.04471,0.46666 h -17.26855 c -0.71695,0 -1.30077,0.14445 -1.75143,0.43334 -0.43018,0.26667 -0.77842,0.6 -1.04472,1 -0.24582,0.4 -0.41994,0.84444 -0.52236,1.33333 -0.082,0.46667 -0.1229,0.9 -0.1229,1.3 0,0.4 0.0409,0.84444 0.1229,1.33333 0.10242,0.46667 0.27654,0.9 0.52236,1.3 0.2663,0.4 0.61454,0.74444 1.04472,1.03333 0.45066,0.26667 1.03448,0.4 1.75143,0.4 h 17.26855 c 0.40969,0 0.75793,0.15556 1.04471,0.46667 0.28679,0.31111 0.43017,0.68888 0.43017,1.13333 0,0.44444 -0.14338,0.82222 -0.43017,1.13333 -0.28678,0.31111 -0.63502,0.46667 -1.04471,0.46667 H 276.5675 c -0.83987,0 -1.58756,-0.22222 -2.24306,-0.66667 -0.65551,-0.44445 -1.21884,-1.01111 -1.68998,-1.7 -0.45067,-0.71111 -0.79891,-1.49999 -1.04473,-2.36666 -0.24582,-0.86667 -0.36872,-1.71111 -0.36872,-2.53333 z"
           id="path22" /><path
           style="font-size:33.3333px;line-height:0.6;font-family:'Space Age';-inkscape-font-specification:'Space Age';text-align:center;text-anchor:middle;fill:url(#linearGradient128);fill-opacity:1;stroke-width:18.1438;stroke-linecap:square"
           d="m 241.07786,131.50277 c 0,0.44444 -0.14339,0.82222 -0.43017,1.13333 -0.28679,0.31111 -0.63503,0.46667 -1.04472,0.46667 -0.40969,0 -0.75793,-0.15556 -1.04472,-0.46667 -0.28678,-0.31111 -0.43017,-0.68889 -0.43017,-1.13333 v -0.76667 c -0.0205,-0.66667 -0.16386,-1.21111 -0.43018,-1.63333 -0.2663,-0.44445 -0.58381,-0.78889 -0.95253,-1.03333 -0.36873,-0.24445 -0.76817,-0.41111 -1.19836,-0.5 -0.43018,-0.0889 -0.81938,-0.13334 -1.16762,-0.13334 h -5.22358 -0.0922 -0.12291 -5.22358 c -0.63502,0 -1.28029,-0.0889 -1.9358,-0.26666 -0.63502,-0.17778 -1.23931,-0.44445 -1.81288,-0.8 v 5.13333 c 0,0.44444 -0.1434,0.82222 -0.43018,1.13333 -0.28679,0.31111 -0.63503,0.46667 -1.04471,0.46667 -0.4097,0 -0.75794,-0.15556 -1.04473,-0.46667 -0.28678,-0.31111 -0.43017,-0.68889 -0.43017,-1.13333 v -11.33332 c 0,-0.44445 0.14339,-0.82223 0.43017,-1.13334 0.28679,-0.31111 0.63503,-0.46666 1.04473,-0.46666 0.40968,0 0.75792,0.15555 1.04471,0.46666 0.28678,0.31111 0.43018,0.68889 0.43018,1.13334 v 0.56666 c 0,0.71111 0.1229,1.3 0.36871,1.76667 0.26631,0.44444 0.58382,0.79999 0.95255,1.06666 0.3892,0.24445 0.79889,0.42222 1.22907,0.53333 0.43018,0.0889 0.82963,0.13334 1.19835,0.13334 h 5.31576 0.0307 0.0922 5.22358 c 0.63502,0 1.27005,0.0889 1.90507,0.26666 0.65551,0.17778 1.27005,0.44445 1.84362,0.8 v -5.13332 c 0,-0.44445 0.14339,-0.82223 0.43017,-1.13334 0.28679,-0.31111 0.63503,-0.46666 1.04473,-0.46666 0.40969,0 0.75793,0.15555 1.04471,0.46666 0.28679,0.31111 0.43017,0.68889 0.43017,1.13334 z"
           id="path19" /><path
           style="font-size:33.3333px;line-height:0.6;font-family:'Space Age';-inkscape-font-specification:'Space Age';text-align:center;text-anchor:middle;fill:url(#linearGradient129);fill-opacity:1;stroke-width:18.1438;stroke-linecap:square"
           d="m 188.93422,125.39271 c 0,-0.84445 0.1229,-1.68889 0.36872,-2.53333 0.2663,-0.86667 0.64527,-1.64445 1.1369,-2.33334 0.49162,-0.71111 1.08568,-1.28888 1.78216,-1.73333 0.69648,-0.44444 1.48514,-0.66666 2.36598,-0.66666 h 17.9138 c 0.4097,0 0.75794,0.15555 1.04472,0.46666 0.28679,0.31111 0.43017,0.68889 0.43017,1.13334 0,0.44444 -0.14338,0.82222 -0.43017,1.13333 -0.28678,0.31111 -0.63502,0.46666 -1.04472,0.46666 h -17.26854 c -0.71696,0 -1.30077,0.14445 -1.75143,0.43334 -0.43019,0.26667 -0.77842,0.6 -1.04472,1 -0.24582,0.4 -0.41994,0.84444 -0.52236,1.33333 -0.0819,0.46667 -0.1229,0.9 -0.1229,1.3 0,0.4 0.0409,0.84444 0.1229,1.33333 0.10242,0.46667 0.27654,0.9 0.52236,1.3 0.2663,0.4 0.61453,0.74444 1.04472,1.03333 0.45066,0.26667 1.03447,0.4 1.75143,0.4 h 17.26854 c 0.4097,0 0.75794,0.15556 1.04472,0.46667 0.28679,0.31111 0.43017,0.68888 0.43017,1.13333 0,0.44444 -0.14338,0.82222 -0.43017,1.13333 -0.28678,0.31111 -0.63502,0.46667 -1.04472,0.46667 h -18.22107 c -0.83987,0 -1.58756,-0.22222 -2.24307,-0.66667 -0.6555,-0.44445 -1.21884,-1.01111 -1.68999,-1.7 -0.45066,-0.71111 -0.79889,-1.49999 -1.04471,-2.36666 -0.24582,-0.86667 -0.36872,-1.71111 -0.36872,-2.53333 z"
           id="path18" /><path
           style="font-size:33.3333px;line-height:0.6;font-family:'Space Age';-inkscape-font-specification:'Space Age';text-align:center;text-anchor:middle;fill:url(#linearGradient130);fill-opacity:1;stroke-width:18.1438;stroke-linecap:square"
           d="m 185.15477,118.42165 c 0.4097,0 0.75793,0.15555 1.04472,0.46666 0.28678,0.31111 0.43018,0.68889 0.43018,1.13334 0,0.42222 -0.13315,0.78888 -0.39945,1.09999 -0.2663,0.28889 -0.58381,0.45556 -0.95253,0.5 h -6.17612 c -0.61455,0.0445 -1.12666,0.21113 -1.53635,0.5 -0.38921,0.26667 -0.69648,0.6 -0.92181,1 -0.22533,0.4 -0.37896,0.83333 -0.4609,1.3 -0.082,0.46667 -0.12291,0.88889 -0.12291,1.26667 v 5.66666 c 0,0.44444 -0.14339,0.82222 -0.43018,1.13333 -0.28678,0.31111 -0.63502,0.46667 -1.04471,0.46667 -0.4097,0 -0.75794,-0.15556 -1.04472,-0.46667 -0.28679,-0.31111 -0.43017,-0.68889 -0.43017,-1.13333 v -5.66666 c 0,-0.68889 0.0819,-1.37778 0.24581,-2.06667 0.16387,-0.71111 0.40969,-1.37777 0.73744,-2 h -10.07843 c -0.40969,0 -0.75793,-0.15555 -1.04472,-0.46666 -0.28678,-0.31111 -0.43018,-0.68889 -0.43018,-1.13333 0,-0.44445 0.1434,-0.82223 0.43018,-1.13334 0.28679,-0.31111 0.63503,-0.46666 1.04472,-0.46666 z"
           id="path17" /><path
           style="font-size:33.3333px;line-height:0.6;font-family:'Space Age';-inkscape-font-specification:'Space Age';text-align:center;text-anchor:middle;fill:url(#linearGradient131);fill-opacity:1;stroke-width:18.1438;stroke-linecap:square"
           d="m 143.91922,132.35497 c -0.30727,0.4 -0.68624,0.6 -1.13691,0.6 -0.40968,0 -0.75793,-0.15556 -1.04471,-0.46667 -0.28678,-0.31111 -0.43017,-0.68889 -0.43017,-1.13333 0,-0.4 0.10242,-0.72222 0.30727,-0.96667 l 7.46664,-10.89999 c 0.34824,-0.51111 0.80915,-0.92222 1.38271,-1.23333 0.57357,-0.33333 1.18811,-0.5 1.84362,-0.5 0.61454,0 1.19835,0.14444 1.75144,0.43333 0.55308,0.28889 1.00374,0.68889 1.35198,1.2 l 7.46664,10.83333 c 0.12291,0.15555 0.22534,0.33333 0.30728,0.53333 0.082,0.17777 0.12291,0.37777 0.12291,0.6 0,0.44444 -0.1434,0.82222 -0.43019,1.13333 -0.28678,0.31111 -0.63501,0.46667 -1.04471,0.46667 -0.49163,0 -0.88083,-0.21111 -1.16762,-0.63334 l -7.15938,-10.36665 c -0.14339,-0.17778 -0.32775,-0.36667 -0.55308,-0.56667 -0.20485,-0.22222 -0.41994,-0.33333 -0.64527,-0.33333 -0.22533,0 -0.45066,0.11111 -0.676,0.33333 -0.20484,0.2 -0.36872,0.38889 -0.49163,0.56667 z"
           id="path16" /><path
           style="font-size:33.3333px;line-height:0.6;font-family:'Space Age';-inkscape-font-specification:'Space Age';text-align:center;text-anchor:middle;fill:url(#linearGradient132);fill-opacity:1;stroke-width:18.1438;stroke-linecap:square"
           d="m 110.39612,131.20717 c 0,0.44444 -0.14339,0.82222 -0.43017,1.13333 -0.28679,0.31111 -0.63503,0.46667 -1.04473,0.46667 -0.40968,0 -0.75793,-0.15556 -1.04471,-0.46667 -0.28678,-0.31111 -0.43018,-0.68889 -0.43018,-1.13333 v -0.76667 c -0.0205,-0.66667 -0.16385,-1.21111 -0.43017,-1.63333 -0.2663,-0.44445 -0.58381,-0.78889 -0.95253,-1.03333 -0.36873,-0.24445 -0.76818,-0.41111 -1.19836,-0.5 -0.43018,-0.0889 -0.81938,-0.13334 -1.16762,-0.13334 H 98.474068 98.381887 98.25898 93.0354 c -0.635024,0 -1.280289,-0.0889 -1.935797,-0.26666 -0.635024,-0.17778 -1.239321,-0.44445 -1.81289,-0.8 v 5.13333 c 0,0.44444 -0.143392,0.82222 -0.430177,1.13333 -0.286785,0.31111 -0.635024,0.46667 -1.044716,0.46667 -0.409693,0 -0.757931,-0.15556 -1.044716,-0.46667 -0.286785,-0.31111 -0.430177,-0.68889 -0.430177,-1.13333 v -11.33332 c 0,-0.44445 0.143392,-0.82223 0.430177,-1.13334 0.286785,-0.31111 0.635023,-0.46666 1.044716,-0.46666 0.409692,0 0.757931,0.15555 1.044716,0.46666 0.286785,0.31111 0.430177,0.68889 0.430177,1.13334 v 0.56666 c 0,0.71111 0.122908,1.3 0.368723,1.76667 0.266301,0.44444 0.583812,0.79999 0.952536,1.06666 0.389207,0.24445 0.798899,0.42222 1.229077,0.53333 0.430177,0.0889 0.829628,0.13334 1.198351,0.13334 h 5.315761 0.03072 0.09218 5.223589 c 0.63501,0 1.27004,0.0889 1.90507,0.26666 0.6555,0.17778 1.27003,0.44445 1.84361,0.8 v -5.13332 c 0,-0.44445 0.14338,-0.82223 0.43018,-1.13334 0.28678,-0.31111 0.63503,-0.46666 1.04471,-0.46666 0.40969,0 0.75793,0.15555 1.04473,0.46666 0.28677,0.31111 0.43017,0.68889 0.43017,1.13334 z"
           id="text13" /><path
           style="font-size:33.3333px;line-height:0.6;font-family:'Space Age';-inkscape-font-specification:'Space Age';text-align:center;text-anchor:middle;fill:url(#linearGradient133);fill-opacity:1;stroke-width:18.1438;stroke-linecap:square"
           d="m 136.9102,117.7044 c 0.40969,0 0.75793,0.15555 1.04471,0.46666 0.28679,0.31111 0.43018,0.68889 0.43018,1.13334 0,0.44444 -0.14339,0.82222 -0.43018,1.13333 -0.28678,0.31111 -0.63502,0.46666 -1.04471,0.46666 h -20.83288 c -0.40969,0 -0.75793,-0.15555 -1.04471,-0.46666 -0.28679,-0.31111 -0.43018,-0.68889 -0.43018,-1.13333 0,-0.44445 0.14339,-0.82223 0.43018,-1.13334 0.28678,-0.31111 0.63502,-0.46666 1.04471,-0.46666 z"
           id="path13-3-8" /><path
           style="font-size:33.3333px;line-height:0.6;font-family:'Space Age';-inkscape-font-specification:'Space Age';text-align:center;text-anchor:middle;fill:url(#linearGradient134);fill-opacity:1;stroke-width:18.1438;stroke-linecap:square"
           d="m 136.9102,123.40566 c 0.40969,0 0.75793,0.15555 1.04471,0.46666 0.28679,0.31111 0.43018,0.68889 0.43018,1.13334 0,0.44444 -0.14339,0.82222 -0.43018,1.13333 -0.28678,0.31111 -0.63502,0.46666 -1.04471,0.46666 h -20.83288 c -0.40969,0 -0.75793,-0.15555 -1.04471,-0.46666 -0.28679,-0.31111 -0.43018,-0.68889 -0.43018,-1.13333 0,-0.44445 0.14339,-0.82223 0.43018,-1.13334 0.28678,-0.31111 0.63502,-0.46666 1.04471,-0.46666 z"
           id="path13-3-3" /><path
           style="font-size:33.3333px;line-height:0.6;font-family:'Space Age';-inkscape-font-specification:'Space Age';text-align:center;text-anchor:middle;fill:url(#linearGradient135);fill-opacity:1;stroke-width:18.1438;stroke-linecap:square"
           d="m 136.9102,129.7044 c 0.40969,0 0.75793,0.15555 1.04471,0.46666 0.28679,0.31111 0.43018,0.68889 0.43018,1.13334 0,0.44444 -0.14339,0.82222 -0.43018,1.13333 -0.28678,0.31111 -0.63502,0.46666 -1.04471,0.46666 h -20.83288 c -0.40969,0 -0.75793,-0.15555 -1.04471,-0.46666 -0.28679,-0.31111 -0.43018,-0.68889 -0.43018,-1.13333 0,-0.44445 0.14339,-0.82223 0.43018,-1.13334 0.28678,-0.31111 0.63502,-0.46666 1.04471,-0.46666 z"
           id="path13-3-37" /><path
           style="font-size:33.3333px;line-height:0.6;font-family:'Space Age';-inkscape-font-specification:'Space Age';text-align:center;text-anchor:middle;fill:url(#linearGradient136);fill-opacity:1;stroke-width:18.1438;stroke-linecap:square"
           d="m 267.42301,117.93345 c 0.40969,0 0.75793,0.15555 1.04471,0.46666 0.28679,0.31111 0.43018,0.68889 0.43018,1.13334 0,0.44444 -0.14339,0.82222 -0.43018,1.13333 -0.28678,0.31111 -0.63502,0.46666 -1.04471,0.46666 h -20.83288 c -0.40969,0 -0.75793,-0.15555 -1.04471,-0.46666 -0.28679,-0.31111 -0.43018,-0.68889 -0.43018,-1.13333 0,-0.44445 0.14339,-0.82223 0.43018,-1.13334 0.28678,-0.31111 0.63502,-0.46666 1.04471,-0.46666 z"
           id="path13-3-8-9" /><path
           style="font-size:33.3333px;line-height:0.6;font-family:'Space Age';-inkscape-font-specification:'Space Age';text-align:center;text-anchor:middle;fill:url(#linearGradient137);fill-opacity:1;stroke-width:18.1438;stroke-linecap:square"
           d="m 267.42301,123.63471 c 0.40969,0 0.75793,0.15555 1.04471,0.46666 0.28679,0.31111 0.43018,0.68889 0.43018,1.13334 0,0.44444 -0.14339,0.82222 -0.43018,1.13333 -0.28678,0.31111 -0.63502,0.46666 -1.04471,0.46666 h -20.83288 c -0.40969,0 -0.75793,-0.15555 -1.04471,-0.46666 -0.28679,-0.31111 -0.43018,-0.68889 -0.43018,-1.13333 0,-0.44445 0.14339,-0.82223 0.43018,-1.13334 0.28678,-0.31111 0.63502,-0.46666 1.04471,-0.46666 z"
           id="path13-3-3-6" /><path
           style="font-size:33.3333px;line-height:0.6;font-family:'Space Age';-inkscape-font-specification:'Space Age';text-align:center;text-anchor:middle;fill:url(#linearGradient138);fill-opacity:1;stroke-width:18.1438;stroke-linecap:square"
           d="m 267.42301,129.93345 c 0.40969,0 0.75793,0.15555 1.04471,0.46666 0.28679,0.31111 0.43018,0.68889 0.43018,1.13334 0,0.44444 -0.14339,0.82222 -0.43018,1.13333 -0.28678,0.31111 -0.63502,0.46666 -1.04471,0.46666 h -20.83288 c -0.40969,0 -0.75793,-0.15555 -1.04471,-0.46666 -0.28679,-0.31111 -0.43018,-0.68889 -0.43018,-1.13333 0,-0.44445 0.14339,-0.82223 0.43018,-1.13334 0.28678,-0.31111 0.63502,-0.46666 1.04471,-0.46666 z"
           id="path13-3-37-0" /><path
           id="path24"
           style="fill:url(#linearGradient139);fill-opacity:1;stroke:none;stroke-width:10.6461;stroke-linecap:square;stroke-opacity:1"
           d="m 326.64574,114.51577 a 2.6334028,2.2884583 0 0 0 -2.63281,2.28906 2.6334028,2.2884583 0 0 0 2.63281,2.28906 2.6334028,2.2884583 0 0 0 2.63477,-2.28906 2.6334028,2.2884583 0 0 0 -2.63477,-2.28906 z m 0.0723,1.51758 a 0.9461329,0.86759961 0 0 1 0.94531,0.86718 0.9461329,0.86759961 0 0 1 -0.94531,0.86719 0.9461329,0.86759961 0 0 1 -0.94727,-0.86719 0.9461329,0.86759961 0 0 1 0.94727,-0.86718 z" /></g></g></g></svg>